<svg id="Слой_1" data-name="Слой 1" xmlns="http://www.w3.org/2000/svg" viewBox="0 0 25 120"><title>3__Монтажная область 1</title><rect width="25" height="120" rx="3.65" style="fill:#bf4f32"/><path d="M12.74,30.59c-3.55,0-5.87-2.63-5.87-6.68,0-3.6,2.09-6.74,6-6.74,2.47,0,5,1.55,5.24,4.16H16.86a3.88,3.88,0,0,0-4-3.09c-2.85,0-4.74,2.26-4.74,5.67s1.86,5.63,4.7,5.63c2.58,0,4-1.76,4.27-4.16h1.21A5.33,5.33,0,0,1,12.74,30.59Z" style="fill:#fff"/><path d="M17.41,48.3H9V35.48h1.23V47.26h7.2Z" style="fill:#fff"/><path d="M18.54,59.93c0,4-2.45,6.68-6.06,6.68s-6-2.7-6-6.72,2.43-6.72,6-6.72S18.54,55.91,18.54,59.93ZM7.69,59.85c0,3.44,1.9,5.69,4.8,5.69s4.83-2.25,4.83-5.63-2-5.67-4.84-5.67S7.69,56.5,7.69,59.85Z" style="fill:#fff"/><path d="M15.89,75.17c-.11-1.94-1.48-2.92-3.57-2.92s-3.2.89-3.2,2.42,1.42,2,3.45,2.43c2.83.61,4.9,1.15,4.9,3.71,0,2.77-2.45,3.76-4.82,3.76-3.19,0-5.12-1.66-5.12-4.39v-.11H8.7c0,2.38,1.59,3.51,4,3.51,2.21,0,3.56-1,3.56-2.65S15,78.81,12,78.11c-2-.45-4-.9-4-3.37,0-2.16,1.71-3.51,4.46-3.51s4.54,1.29,4.67,3.94Z" style="fill:#fff"/><path d="M17.35,90.52H9.68v4.63h7.19v1H9.68v5.08h7.75v1h-9V89.48h8.89Z" style="fill:#fff"/></svg>