<svg id="Слой_1" data-name="Слой 1" xmlns="http://www.w3.org/2000/svg" width="24" height="24" viewBox="0 0 24 24"><title>discord</title><rect width="24" height="24" style="fill:none"/><path d="M19.44,5.09A17.51,17.51,0,0,0,15,3.7a12.81,12.81,0,0,0-.57,1.18,16.1,16.1,0,0,0-4.9,0A12.81,12.81,0,0,0,9,3.7,17.47,17.47,0,0,0,4.55,5.1,18.58,18.58,0,0,0,1.37,17.51,17.63,17.63,0,0,0,6.8,20.29,14.72,14.72,0,0,0,8,18.38a11.05,11.05,0,0,1-1.83-.89l.45-.35a12.49,12.49,0,0,0,10.84,0l.45.35a11.05,11.05,0,0,1-1.83.89A13.42,13.42,0,0,0,17.2,20.3a17.9,17.9,0,0,0,5.43-2.79A18.6,18.6,0,0,0,19.44,5.09ZM8.44,15a2.08,2.08,0,0,1-1.93-2.19,2.07,2.07,0,0,1,1.93-2.19,2.06,2.06,0,0,1,1.93,2.19A2.06,2.06,0,0,1,8.44,15Zm7.12,0a2.08,2.08,0,0,1-1.93-2.19,2.07,2.07,0,0,1,1.93-2.19,2.06,2.06,0,0,1,1.93,2.19A2.06,2.06,0,0,1,15.56,15Z" style="fill:#fff"/></svg>