<svg id="Слой_1" data-name="Слой 1" xmlns="http://www.w3.org/2000/svg" viewBox="0 0 200 80"><title>3__Монтажная область 1</title><path d="M47.69,36.69H33.39a.67.67,0,0,0-.67.67v7a.67.67,0,0,0,.67.67H39V53.7a16.87,16.87,0,0,1-4.72.43c-4.09,0-9.79-1.49-9.79-14S30.4,25.88,36,25.88a22.56,22.56,0,0,1,8.23,1.26.67.67,0,0,0,.8-.65l1.6-6.76a.62.62,0,0,0-.26-.52c-.53-.39-3.81-2.22-12.1-2.22-9.55,0-19.34,4.06-19.34,23.59S26.12,63,35.57,63a23.29,23.29,0,0,0,12.57-3.34.6.6,0,0,0,.22-.51V37.36A.67.67,0,0,0,47.69,36.69Z" style="fill:#fff"/><path d="M121.39,19.33a.67.67,0,0,0-.67-.67h-8a.67.67,0,0,0-.67.67V34.89H99.45V19.33a.66.66,0,0,0-.66-.67H90.74a.67.67,0,0,0-.67.67V61.46a.68.68,0,0,0,.67.68h8.05a.67.67,0,0,0,.66-.68v-18H112l0,18a.68.68,0,0,0,.67.68h8.07a.68.68,0,0,0,.67-.68Z" style="fill:#fff"/><path d="M62.88,24.86a5.19,5.19,0,1,0-5.19,5.24A5.22,5.22,0,0,0,62.88,24.86Z" style="fill:#fff"/><path d="M62.31,52.57V33.13a.68.68,0,0,0-.67-.68h-8a.77.77,0,0,0-.69.75V61.07c0,.82.51,1.06,1.17,1.06h7.23c.79,0,1-.39,1-1.07Z" style="fill:#fff"/><path d="M152,32.52h-8a.67.67,0,0,0-.67.67V53.85a9,9,0,0,1-4.91,1.49c-2.88,0-3.64-1.31-3.64-4.13v-18a.67.67,0,0,0-.67-.67H126a.67.67,0,0,0-.66.67V52.57C125.34,61,130,63,136.43,63A18.74,18.74,0,0,0,146,60.09s.2,1.53.29,1.72a.72.72,0,0,0,.59.36l5.16,0a.67.67,0,0,0,.67-.67V33.19A.67.67,0,0,0,152,32.52Z" style="fill:#fff"/><path d="M173.83,31.57a15,15,0,0,0-7.63,2V19.33a.67.67,0,0,0-.66-.67h-8.08a.67.67,0,0,0-.66.67V61.46a.68.68,0,0,0,.66.68h5.61a.66.66,0,0,0,.58-.36,13.07,13.07,0,0,0,.34-1.94s3.3,3.13,9.55,3.13c7.34,0,11.55-3.73,11.55-16.71S178.37,31.57,173.83,31.57Zm-3.15,23.74A9.55,9.55,0,0,1,166,54V40.63a10.63,10.63,0,0,1,4.13-1.34c2.88-.26,5.65.61,5.65,7.47C175.8,54,174.55,55.43,170.68,55.31Z" style="fill:#fff"/><path d="M85.45,32.45h-6v-8c0-.3-.16-.45-.51-.45H70.66c-.32,0-.49.14-.49.45v8.24s-4.12,1-4.4,1.08a.66.66,0,0,0-.48.64v5.18a.67.67,0,0,0,.66.68h4.22V52.75c0,9.26,6.5,10.17,10.88,10.17a18.13,18.13,0,0,0,4.79-.79.62.62,0,0,0,.38-.6v-5.7a.69.69,0,0,0-.67-.68c-.35,0-1.25.15-2.18.15-3,0-4-1.38-4-3.17V40.29h6a.67.67,0,0,0,.66-.68V33.12A.66.66,0,0,0,85.45,32.45Z" style="fill:#fff"/></svg>