<svg xmlns="http://www.w3.org/2000/svg" viewBox="0 0 25 120"><title>3__Монтажная область 1</title><g id="Слой_1" data-name="Слой 1"><rect width="25" height="120" rx="3.65" style="fill:#bf4f32"/></g><g id="Слой_2" data-name="Слой 2"><path d="M17.59,90.31v1H10.71c-1.21,0-2.39,0-3.59-.12.69.22,1.39.48,2.06.75l8.41,3.36v1L9.28,99.73c-.69.28-1.39.52-2.1.75,1.17-.08,2.32-.13,3.49-.13h6.92v1H6.19V99.92l8.13-3.32c.71-.28,1.43-.52,2.15-.78-.71-.26-1.43-.48-2.12-.75L6.19,91.8V90.31Z" style="fill:#fff"/><path d="M11.92,77.9c3.55,0,5.94,2.17,5.94,5.39s-2.4,5.35-6,5.35-6-2.16-6-5.36S8.35,77.9,11.92,77.9Zm-.06,9.65c3.06,0,5.06-1.7,5.06-4.27s-2-4.29-5-4.29-5,1.72-5,4.3S8.88,87.55,11.86,87.55Z" style="fill:#fff"/><path d="M6.19,71c0-2,.9-3.56,3.07-3.56a2.72,2.72,0,0,1,2.82,2.23c.26-1.44,1.06-1.91,2.58-2,.5,0,2.42,0,2.93-.55V68.4a7.72,7.72,0,0,1-2.53.33c-2.15.15-2.56,1-2.56,3V75.1h5.09v1.09H6.19Zm5.44,4.06V71.88c0-1.61-.27-3.32-2.3-3.32-1.75,0-2.21,1.36-2.21,2.83V75.1Z" style="fill:#fff"/><path d="M7.12,57.61v6.82h4.11V58h.92v6.39h4.51V57.55h.93v8H6.19V57.61Z" style="fill:#fff"/><path d="M17.59,50.41V51.5H6.19V50.41Z" style="fill:#fff"/><path d="M17.59,39.07v1.2l-7.65,5.3a20.49,20.49,0,0,1-2.44,1.5C8.42,47,9.31,47,10.23,47h7.36v1.06H6.19v-1.2l7.73-5.33A28,28,0,0,1,16.31,40c-1,0-2,.08-3,.08H6.19v-1Z" style="fill:#fff"/><path d="M7.12,29.52v6.19h4.1V30.2h.93v5.51h5.44v1.07H6.19V29.52Z" style="fill:#fff"/><path d="M11.92,18c3.55,0,5.94,2.17,5.94,5.39s-2.4,5.35-6,5.35-6-2.16-6-5.37S8.35,18,11.92,18Zm-.06,9.65c3.06,0,5.06-1.7,5.06-4.28s-2-4.28-5-4.28-5,1.72-5,4.3S8.88,27.68,11.86,27.68Z" style="fill:#fff"/></g></svg>