<svg id="Слой_1" data-name="Слой 1" xmlns="http://www.w3.org/2000/svg" xmlns:xlink="http://www.w3.org/1999/xlink" viewBox="0 0 200 80"><defs><clipPath id="clip-path"><ellipse cx="152.43" cy="28.63" rx="22.65" ry="18.63" transform="translate(13.46 97.5) rotate(-37)" style="fill:none"/></clipPath><clipPath id="clip-path-2"><rect x="120.21" y="-0.88" width="64.65" height="59.37" transform="translate(13.38 97.6) rotate(-37)" style="fill:none"/></clipPath><clipPath id="clip-path-3"><ellipse cx="152.43" cy="28.63" rx="22.65" ry="18.63" transform="matrix(0.8, -0.6, 0.6, 0.8, 13.46, 97.5)" style="fill:none"/></clipPath><clipPath id="clip-path-4"><rect x="129.89" y="10.35" width="45.27" height="37.29" transform="translate(13.27 97.63) rotate(-37)" style="fill:none"/></clipPath><clipPath id="clip-path-5"><rect x="129.91" y="10.34" width="45.27" height="37.29" transform="translate(82.63 167.63) rotate(-74)" style="fill:none"/></clipPath></defs><title>3__Монтажная область 1</title><path d="M103.85,28.68l9.45-.61a7.38,7.38,0,0,0,1.26,3.52A5.28,5.28,0,0,0,119,33.53a4.76,4.76,0,0,0,3.27-1,2.91,2.91,0,0,0,1.15-2.31A2.83,2.83,0,0,0,122.29,28c-.72-.64-2.41-1.29-5.07-1.87-4.35-1-7.48-2.26-9.31-3.91a7.82,7.82,0,0,1-2.8-6.23,8.37,8.37,0,0,1,1.43-4.67,9.43,9.43,0,0,1,4.32-3.45,20.34,20.34,0,0,1,7.91-1.26c4.1,0,7.23.75,9.38,2.3s3.46,4,3.85,7.3l-9.35.54a5,5,0,0,0-1.58-3.16,4.94,4.94,0,0,0-3.31-1,4,4,0,0,0-2.59.72,2.17,2.17,0,0,0-.86,1.8,1.72,1.72,0,0,0,.72,1.36,8,8,0,0,0,3.34,1.19,41,41,0,0,1,9.35,2.84,9.6,9.6,0,0,1,4.1,3.56,8.81,8.81,0,0,1,1.26,4.78,10.17,10.17,0,0,1-1.72,5.72,10.91,10.91,0,0,1-4.79,4,19.31,19.31,0,0,1-7.73,1.37c-5.46,0-9.24-1-11.36-3.16A12.35,12.35,0,0,1,103.85,28.68ZM3.49,39.32V7.17H20.06a23.64,23.64,0,0,1,7.05.8A7.42,7.42,0,0,1,31,10.91a9,9,0,0,1,1.51,5.22,8.61,8.61,0,0,1-4.28,7.77,10.8,10.8,0,0,1-3.49,1.25,10.31,10.31,0,0,1,2.59,1.19A10.15,10.15,0,0,1,29,28a12.24,12.24,0,0,1,1.4,2l4.82,9.32H23.88l-5.33-9.89A7.82,7.82,0,0,0,16.76,27a4.25,4.25,0,0,0-2.45-.76h-.86V39.29h-10Zm10-19.13h4.2a15.35,15.35,0,0,0,2.63-.43,2.54,2.54,0,0,0,1.62-1,3.2,3.2,0,0,0-.36-4.24,6.11,6.11,0,0,0-3.71-.83H13.45ZM1.22,66.87l9.46-.62a7.18,7.18,0,0,0,1.26,3.53,5.26,5.26,0,0,0,4.38,2,4.79,4.79,0,0,0,3.28-1,3,3,0,0,0,1.15-2.3,2.86,2.86,0,0,0-1.08-2.23c-.72-.65-2.41-1.3-5.11-1.87-4.35-1-7.48-2.27-9.31-3.92a7.81,7.81,0,0,1-2.81-6.22,8.39,8.39,0,0,1,1.44-4.68A9.56,9.56,0,0,1,8.2,46.08a20.31,20.31,0,0,1,7.91-1.26c4.1,0,7.23.76,9.38,2.3s3.42,4,3.82,7.3L20,55a5.05,5.05,0,0,0-1.59-3.16,4.7,4.7,0,0,0-3.3-1,3.83,3.83,0,0,0-2.59.75,2.11,2.11,0,0,0-.87,1.8,1.76,1.76,0,0,0,.72,1.37,8,8,0,0,0,3.35,1.18A41.28,41.28,0,0,1,25,58.78a9.65,9.65,0,0,1,4.1,3.56,9.23,9.23,0,0,1,1.29,4.74,10.28,10.28,0,0,1-1.73,5.68,10.85,10.85,0,0,1-4.78,4,19.32,19.32,0,0,1-7.73,1.36c-5.47,0-9.24-1-11.36-3.16a12.69,12.69,0,0,1-3.6-8Z"/><path d="M49.05,64.35,57.75,67A16.32,16.32,0,0,1,55,73.09a12.09,12.09,0,0,1-4.68,3.7,17.58,17.58,0,0,1-7.11,1.26,20.68,20.68,0,0,1-8.56-1.51,13.62,13.62,0,0,1-5.76-5.36,18.11,18.11,0,0,1-2.41-9.82c0-5.32,1.41-9.42,4.25-12.26s6.83-4.28,12-4.28c4.06,0,7.23.83,9.56,2.45a14.81,14.81,0,0,1,5.18,7.55l-8.77,1.94a8.08,8.08,0,0,0-1-2.16,5.8,5.8,0,0,0-2-1.76,5.87,5.87,0,0,0-2.7-.61A5.78,5.78,0,0,0,37.79,55c-.9,1.33-1.37,3.46-1.37,6.33q0,5.34,1.62,7.34a5.53,5.53,0,0,0,4.57,2A5.58,5.58,0,0,0,46.92,69a10.24,10.24,0,0,0,2.13-4.67Zm20.31-19h9.93V56.62H90.15V45.36h10V77.51h-10v-13H79.29v13H69.36Z"/><path d="M98.78,61.44c0-5.25,1.47-9.35,4.38-12.27s7-4.38,12.23-4.38c5.36,0,9.46,1.44,12.37,4.31s4.35,6.91,4.35,12.08a19.82,19.82,0,0,1-1.91,9.25A13.48,13.48,0,0,1,124.74,76a18.31,18.31,0,0,1-8.95,2,20.52,20.52,0,0,1-9-1.73A13.69,13.69,0,0,1,101,70.86,18.32,18.32,0,0,1,98.78,61.44Zm9.92,0c0,3.24.61,5.58,1.8,7a6.85,6.85,0,0,0,9.89,0c1.18-1.4,1.76-3.88,1.76-7.48,0-3-.61-5.25-1.83-6.62a6.26,6.26,0,0,0-5-2.08,6.09,6.09,0,0,0-4.81,2.12q-1.85,2.1-1.84,7Zm33.59,0c0-5.25,1.47-9.35,4.38-12.27s7-4.38,12.23-4.38,9.49,1.44,12.37,4.31,4.35,6.91,4.35,12.08a19.82,19.82,0,0,1-1.91,9.25A13.48,13.48,0,0,1,168.25,76a18.35,18.35,0,0,1-9,2,20.5,20.5,0,0,1-9-1.73,13.69,13.69,0,0,1-5.79-5.46A18.32,18.32,0,0,1,142.29,61.44Zm9.92,0c0,3.24.61,5.58,1.8,7a6.85,6.85,0,0,0,9.89,0c1.18-1.4,1.76-3.88,1.76-7.48,0-3-.61-5.25-1.83-6.62a6.26,6.26,0,0,0-5-2.08,6,6,0,0,0-4.81,2.12q-1.85,2.1-1.84,7Z"/><path d="M174.58,45.36h9.92V69.6H200v7.91H174.54V45.36Z"/><ellipse cx="152.43" cy="28.63" rx="22.65" ry="18.63" transform="translate(13.46 97.5) rotate(-37)" style="fill:#fff"/><g style="clip-path:url(#clip-path)"><path d="M108.85,24.56l51.64-38.91,35.73,47.41L144.58,72Z" style="fill:#fff"/><g id="Layer_2" data-name="Layer 2"><g style="clip-path:url(#clip-path-2)"><g id="Layer_1-2" data-name="Layer 1-2"><ellipse cx="152.43" cy="28.63" rx="22.65" ry="18.63" transform="matrix(0.8, -0.6, 0.6, 0.8, 13.46, 97.5)" style="fill:#fff"/><g style="clip-path:url(#clip-path-3)"><path d="M123.23,27.72,159.39.48l22.44,29.78L145.67,57.5Z" style="fill:#fff"/><g style="clip-path:url(#clip-path-4)"><ellipse cx="152.43" cy="28.63" rx="22.65" ry="18.63" transform="translate(13.46 97.5) rotate(-37)" style="fill:#fff;stroke:#000;stroke-miterlimit:9.999999713742863;stroke-width:3.999999885497145px"/></g><g style="clip-path:url(#clip-path-5)"><path d="M123.23,27.72,159.39.48l22.44,29.78L145.67,57.5Z" style="fill:none;stroke:#000;stroke-miterlimit:9.99999973917957;stroke-width:3.9999998956718277px"/></g><ellipse cx="152.43" cy="28.63" rx="22.65" ry="18.63" transform="translate(13.46 97.5) rotate(-37)" style="fill:none;stroke:#000;stroke-miterlimit:9.999999713742863;stroke-width:3.999999885497145px"/><path d="M123.23,27.72,159.39.48l22.44,29.78L145.67,57.5Z" style="fill:#fff"/><g style="clip-path:url(#clip-path-4)"><ellipse cx="152.43" cy="28.63" rx="22.65" ry="18.63" transform="translate(13.46 97.5) rotate(-37)" style="fill:#fff;stroke:#000;stroke-miterlimit:9.999999713742863;stroke-width:3.999999885497145px"/></g><g style="clip-path:url(#clip-path-5)"><path d="M123.23,27.72,159.39.48l22.44,29.78L145.67,57.5Z" style="fill:none;stroke:#000;stroke-miterlimit:9.99999973917957;stroke-width:3.9999998956718277px"/></g><path d="M108.85,24.56l51.64-38.91,35.73,47.41L144.58,72Z" style="fill:#BF4F32;stroke:#000;stroke-miterlimit:9.999999713742863;stroke-width:3.999999885497145px"/></g><ellipse cx="152.43" cy="28.63" rx="22.65" ry="18.63" transform="matrix(0.8, -0.6, 0.6, 0.8, 13.46, 97.5)" style="fill:none;stroke:#000;stroke-miterlimit:9.999999713742863;stroke-width:3.999999885497145px"/><path d="M142.32,26.27l3.6-2.52L150.34,30a12.36,12.36,0,0,1,1.76,3.28,4.13,4.13,0,0,1-.18,2.73,5.74,5.74,0,0,1-2.23,2.62,7.74,7.74,0,0,1-3.05,1.44,4.2,4.2,0,0,1-2.48-.36,6,6,0,0,1-2.2-1.83l3.1-2.88a4.25,4.25,0,0,0,.93,1.05,1.45,1.45,0,0,0,.86.28,1.1,1.1,0,0,0,.69-.25,1.17,1.17,0,0,0,.57-1.08,3.7,3.7,0,0,0-.75-1.69l-5-7.08Zm10.79,4,3.27-2.59a3.16,3.16,0,0,0,1.33.94,2.32,2.32,0,0,0,2.09-.4,2.16,2.16,0,0,0,.93-1.19,1.26,1.26,0,0,0-.79-1.58,1.23,1.23,0,0,0-.32-.07,5.63,5.63,0,0,0-2.3.61,9.61,9.61,0,0,1-4.35.94,3.46,3.46,0,0,1-2.59-1.55,3.93,3.93,0,0,1-.69-2.05,4.14,4.14,0,0,1,.69-2.34,9,9,0,0,1,2.51-2.44,7.28,7.28,0,0,1,4-1.55,4.31,4.31,0,0,1,3.23,1.66l-3.23,2.55a1.94,1.94,0,0,0-2.7-.36l-.11.11a1.73,1.73,0,0,0-.75.93.92.92,0,0,0,.14.86.8.8,0,0,0,.61.33,3.58,3.58,0,0,0,1.51-.43,18.73,18.73,0,0,1,4.1-1.33,4,4,0,0,1,2.37.25,3.72,3.72,0,0,1,1.66,1.4,4.62,4.62,0,0,1,.82,2.48,4.52,4.52,0,0,1-.71,2.63,8.89,8.89,0,0,1-2.45,2.44c-2,1.37-3.6,1.94-4.89,1.73a5.32,5.32,0,0,1-3.38-2Z"/></g></g></g></g></svg>